<svg width="1560" height="228" viewBox="0 0 1560 228" fill="none" xmlns="http://www.w3.org/2000/svg">
<path d="M0 225.295V0H72.0506C142.516 0 185.308 45.1078 185.308 112.648C185.308 179.944 142.516 225.295 72.0506 225.295H0ZM28.04 199.572H72.1726C126.912 199.572 156.78 165.07 156.78 112.648C156.78 59.8593 126.79 25.7236 72.1726 25.7236H28.04V199.572ZM308.074 143.248C308.074 93.3854 339.65 59.2497 385.977 59.2497C432.304 59.2497 462.538 88.5088 463.879 137.152C463.879 140.688 463.514 144.589 463.27 148.368H335.749V150.563C336.724 181.772 356.352 203.717 387.562 203.717C410.725 203.717 428.768 191.525 434.254 170.191H460.953C454.492 202.985 427.427 227.124 389.512 227.124C340.259 227.246 308.074 193.476 308.074 143.248ZM435.595 126.546C433.035 98.2619 413.651 82.4132 386.343 82.4132C362.204 82.4132 340.016 99.8467 337.455 126.546H435.595ZM628.706 118.499V225.417H605.908L603.714 199.693C593.473 214.445 577.015 227.368 548.609 227.368C512.523 227.368 488.14 209.325 488.14 179.456C488.14 146.661 510.938 128.252 554.095 128.252H602.373V117.036C602.373 95.8236 587.255 82.9008 561.532 82.9008C538.368 82.9008 522.885 93.873 519.716 110.575H493.26C497.162 78.3901 523.251 59.3716 562.751 59.3716C604.567 59.2497 628.706 80.2187 628.706 118.499ZM602.373 150.319H551.535C528.006 150.319 514.839 158.975 514.839 177.627C514.839 193.72 528.737 204.692 550.56 204.692C583.354 204.692 602.373 185.673 602.373 158.365V150.319ZM907.887 130.691V225.295H881.432V132.276C881.432 100.091 867.29 83.3885 842.419 83.3885C815.111 83.3885 798.287 103.992 798.287 137.518V225.417H771.832V132.398C771.832 100.212 757.324 83.5104 732.21 83.5104C705.145 83.5104 688.809 106.064 688.809 138.859V225.417H662.354V61.2003H685.152L688.687 83.7542C697.343 71.8067 711.241 59.2497 736.599 59.2497C759.397 59.2497 779.147 69.6123 788.412 90.4594C798.409 72.7821 816.086 59.2497 845.345 59.2497C879.847 59.2497 907.887 78.8777 907.887 130.691ZM933.854 143.614C933.854 93.3854 966.405 59.2497 1014.07 59.2497C1054.3 59.2497 1079.78 81.8036 1086.49 117.89H1058.82C1053.94 95.9455 1037.85 82.7789 1013.71 82.7789C982.132 82.7789 960.919 107.893 960.919 143.614C960.919 179.334 982.132 203.839 1013.71 203.839C1037.24 203.839 1053.33 190.306 1058.45 169.337H1086.49C1080.03 204.692 1053.33 227.246 1013.46 227.246C965.43 227.246 933.854 194.817 933.854 143.614ZM1350.43 118.499V225.417H1327.63L1325.44 199.693C1315.2 214.445 1298.74 227.368 1270.33 227.368C1234.25 227.368 1209.87 209.325 1209.87 179.456C1209.87 146.661 1232.66 128.252 1275.82 128.252H1324.1V117.036C1324.1 95.8236 1308.98 82.9008 1283.26 82.9008C1260.09 82.9008 1244.61 93.873 1241.44 110.575H1214.99C1218.89 78.3901 1244.98 59.3716 1284.48 59.3716C1326.29 59.2497 1350.43 80.2187 1350.43 118.499ZM1324.1 150.319H1273.26C1249.73 150.319 1236.56 158.975 1236.56 177.627C1236.56 193.72 1250.46 204.692 1272.29 204.692C1305.08 204.692 1324.1 185.673 1324.1 158.365V150.319ZM1560 201.156V225.295H1529.77C1498.19 225.295 1486.97 211.397 1486.97 182.504V85.3391H1422.97V225.417H1396.51V85.3391H1366.89V61.2003H1396.51V42.7915C1396.51 13.7762 1408.71 0 1439.31 0H1464.42V24.1388H1440.89C1427.72 24.1388 1422.85 29.6249 1422.85 42.1819V61.2003H1486.85V15.1172H1513.31V61.2003H1554.88V85.3391H1513.31V182.26C1513.31 196.158 1518.18 201.278 1531.35 201.278H1560V201.156ZM300.394 61.2003H217.005V225.417H243.46V85.3391H300.394V61.2003ZM1198.89 61.2003H1115.5V225.417H1141.96V85.3391H1198.89V61.2003Z" fill="#0F1A21"/>
</svg>
