<svg width="46" height="44" viewBox="0 0 46 44" fill="none" xmlns="http://www.w3.org/2000/svg">
<path fill-rule="evenodd" clip-rule="evenodd" d="M0 6.64868V13.2974H3.14247H6.28493V11.6706V10.0438H6.92771H7.57049V11.6706V13.2974H10.713H13.8554V6.64868V0H10.713H7.57049V1.69754V3.39507H6.92771H6.28493V1.69754V0H3.14247H0V6.64868ZM16.172 5.90601L16.2123 11.812L16.5449 12.2739C17.2394 13.2384 17.1202 13.2221 23.8899 13.2677L29.9963 13.3088V11.3933V9.47791H26.8538H23.7113V8.84133V8.20476H26.8538H29.9963V6.64868V5.09261H26.8538H23.7113V4.45603V3.81946H26.8538H29.9963V1.90973V0H23.064H16.1319L16.172 5.90601ZM33.7909 0.220255C33.125 0.465974 32.7656 0.766013 32.4457 1.3436C32.2401 1.71451 32.2049 2.49849 32.1671 7.53282L32.124 13.2974H35.2692H38.4144L38.4548 11.7059L38.4952 10.1145H39.0666H39.6379L39.6784 11.7059L39.7188 13.2974H42.8565H45.9943V7.59817C45.9943 1.96674 45.9904 1.89148 45.6729 1.27598C45.4541 0.85188 45.1691 0.560045 44.7802 0.361858C44.2396 0.0864327 43.9433 0.0691748 39.2808 0.0418728C35.2488 0.0181073 34.2507 0.050643 33.7909 0.220255ZM39.7094 4.52676V5.51699H39.0666H38.4238V4.62112C38.4238 4.12827 38.4666 3.68266 38.5191 3.63089C38.5714 3.57897 38.8606 3.53653 39.1618 3.53653H39.7094V4.52676ZM34.4104 15.4203C33.4777 15.5777 32.9312 15.8977 32.5455 16.5122C32.2104 17.0458 32.2103 17.0484 32.2103 21.9972C32.2103 27.4585 32.2166 27.5005 33.1273 28.1427C33.8459 28.6496 34.8321 28.7217 40.501 28.683L45.9229 28.6459L45.9614 25.6399L46 22.6338H42.8547H39.7094V23.624V24.6143H39.0666H38.4238V22.068V19.5217H39.0666H39.7094V20.4412V21.3607H42.8547H46L45.9614 18.3546L45.9229 15.3486L40.495 15.329C37.5096 15.3183 34.7715 15.3593 34.4104 15.4203ZM0 22.0708V28.7222L3.10676 28.6841L6.21351 28.6459L6.25394 27.0545L6.29436 25.463H6.93243H7.57049V27.0927V28.7222L10.6772 28.6841L13.784 28.6459V26.4278C13.784 24.3987 13.7586 24.1757 13.4852 23.8108C13.0615 23.2452 12.3707 22.8146 11.7095 22.704C11.1476 22.6101 11.1415 22.6021 11.1415 21.9848V21.3607H12.5116H13.8816L13.8329 19.2741C13.7749 16.7953 13.5895 16.276 12.572 15.7432C11.9559 15.4206 11.9304 15.4193 5.97683 15.4193H0V22.0708ZM16.1409 18.39V21.3607H17.9953H19.8498L19.888 25.0033L19.9261 28.6459L23.0304 28.684L26.1348 28.7222L26.1729 25.0767L26.211 21.4314L28.1037 21.3919L29.9963 21.3525V18.3859V15.4193H23.0686H16.1409V18.39ZM7.57049 19.8753V20.7948H6.92771H6.28493V19.8753V18.9558H6.92771H7.57049V19.8753ZM1.66222 30.9044C0.935169 31.1611 0.317532 31.7634 0.142696 32.3866C0.063135 32.6701 0.00128549 34.8926 0.000856974 37.4779C-6.21362e-08 41.8303 0.0151408 42.0972 0.29582 42.6714C0.469513 43.0266 0.808614 43.4101 1.11715 43.6001C1.63994 43.9221 1.66951 43.9237 6.92771 43.9237C14.3077 43.9237 13.7633 44.417 13.827 37.6707C13.873 32.7995 13.8203 32.2869 13.1982 31.5547C12.538 30.7776 11.9269 30.6964 6.79458 30.7033C3.28016 30.7081 2.0856 30.7548 1.66222 30.9044ZM16.1409 37.3486V44L19.2476 43.9619L22.3544 43.9237L22.3949 42.403L22.4355 40.8823H23.0734H23.7113V42.4412V44L26.8181 43.9619L29.9249 43.9237V41.8018C29.9249 39.9294 29.8909 39.6216 29.6359 39.1848C29.3141 38.6334 28.3115 38.0531 27.6806 38.0531C27.3043 38.0531 27.2823 38.0183 27.2823 37.4219V36.7906L28.6036 36.75L29.9249 36.7092L29.9654 35.0929C30.0187 32.9752 29.822 32.037 29.2038 31.4596C28.4389 30.7452 27.972 30.6971 21.7912 30.6971H16.1409V37.3486ZM32.1671 36.4617C32.2049 41.5077 32.2397 42.2791 32.4467 42.6506C32.8039 43.2918 33.3354 43.721 33.9462 43.8615C34.2485 43.931 37.083 43.9892 40.245 43.9911L45.9943 43.9945V42.0848V40.175H42.8437H39.6929L39.7369 39.5738L39.7808 38.9726L42.8875 38.9344L45.9943 38.8964V37.3458V35.7952L42.8875 35.7572L39.7808 35.719V35.1531V34.5873L42.8875 34.5491L45.9943 34.5111V32.604V30.6971H39.0591H32.124L32.1671 36.4617ZM23.6822 35.2592L23.7243 36.2141H23.0751H22.4258V35.2158V34.2174L23.0329 34.2609L23.6399 34.3044L23.6822 35.2592ZM7.57049 37.4165V39.0433H6.92771H6.28493V37.4165V35.7897H6.92771H7.57049V37.4165Z" fill="#2B2B2B"/>
</svg>
